<?xml version="1.0" encoding="utf-8"?>
<svg width="32.909164px" height="38.394028px" viewBox="0 0 32.909164 38.394028" version="1.1" xmlns:xlink="http://www.w3.org/1999/xlink" xmlns="http://www.w3.org/2000/svg">
  <path d="M30.1667 13.7121L27.4243 13.7121L27.4243 10.9697C27.4243 4.91132 22.513 1.52588e-05 16.4546 0C10.3962 -1.52588e-05 5.48489 4.91127 5.48486 10.9697L5.48486 13.7121L2.74243 13.7121C1.22783 13.7121 0 14.94 0 16.4546L0 35.6516C0 37.1662 1.22783 38.394 2.74243 38.394L30.1667 38.394C31.6813 38.394 32.9092 37.1662 32.9092 35.6516L32.9092 16.4546C32.9092 14.94 31.6813 13.7121 30.1667 13.7121L30.1667 13.7121ZM9.59851 10.9697C9.59851 7.18791 12.6755 4.11365 16.4546 4.11365C20.2364 4.11365 23.3107 7.18791 23.3107 10.9697L23.3107 13.7121L9.59851 13.7121L9.59851 10.9697L9.59851 10.9697ZM13.7122 34.2804L6.7738 27.342L9.68078 24.4323L13.7122 28.4637L23.2284 18.9474L26.1354 21.8572L13.7122 34.2804L13.7122 34.2804Z" id="325d6da5-fb25-4f72-84ba-5c99f030af35" fill="#629A40" fill-rule="evenodd" stroke="none" />
</svg>